<?xml version="1.0" encoding="UTF-8" standalone="no"?>
<!DOCTYPE svg PUBLIC "-//W3C//DTD SVG 1.1//EN" "http://www.w3.org/Graphics/SVG/1.1/DTD/svg11.dtd">
<svg width="100%" height="100%" viewBox="0 0 20 20" version="1.1" xmlns="http://www.w3.org/2000/svg" xmlns:xlink="http://www.w3.org/1999/xlink" xml:space="preserve" xmlns:serif="http://www.serif.com/" style="fill-rule:evenodd;clip-rule:evenodd;stroke-linejoin:round;stroke-miterlimit:1.41421;">
    <g transform="matrix(1,0,0,1,-1248.34,-1772.89)">
        <g>
            <g transform="matrix(0.264813,0,0,0.264813,1263.69,1777.7)">
                <path d="M0,-7.834C-4.503,-7.553 -9.211,-6.687 -8.668,-0.778C-8.215,4.15 -7.793,6.86 -11.668,10.373C-12.417,9.68 -13.251,9.077 -14.152,8.579C-10.661,3.778 -11.737,-0.751 -16.212,-3.641C-21.229,-6.882 -24.689,-14.304 -11.901,-18.207C-16.363,-14.345 -20.402,-10.14 -11.328,-4.334C-10.226,-8.652 -5.813,-9.5 0,-7.834M-20.875,-15.089C-24.223,-10.859 -23.527,-7.466 -19.226,-4.411C-14.999,-1.41 -13.67,2.047 -15.388,7.983C-16.391,7.565 -17.458,7.273 -18.572,7.125C-17.937,1.102 -20.896,-0.541 -23.943,-2.48C-28.813,-5.579 -26.929,-13.434 -20.875,-15.089" style="fill:rgb(4,21,87);"/>
            </g>
            <g transform="matrix(0.264813,0,0,0.264813,1257,1780.25)">
                <path d="M0,-23.706C-2.992,-20.328 -5.715,-16.391 -1.159,-12.589C2.641,-9.419 4.853,-7.797 4.588,-2.573C3.568,-2.535 2.552,-2.375 1.563,-2.091C0.645,-7.956 -3.313,-10.404 -8.524,-9.292C-14.365,-8.046 -22.055,-10.861 -15.753,-22.653C-16.187,-16.767 -16.079,-10.937 -5.553,-13.23C-7.82,-17.067 -5.294,-20.782 0,-23.706M-19.907,-14.109C-19.293,-8.749 -16.404,-6.838 -11.202,-7.71C-6.089,-8.568 -2.708,-7.057 0.266,-1.64C-0.739,-1.229 -1.702,-0.682 -2.595,0C-6.396,-4.715 -9.652,-3.789 -13.18,-3.012C-18.817,-1.77 -23.027,-8.663 -19.907,-14.109" style="fill:rgb(4,21,87);"/>
            </g>
            <g transform="matrix(0.264813,0,0,0.264813,1251.1,1785.16)">
                <path d="M0,-28.82C0.266,-24.316 1.116,-19.605 7.027,-20.128C11.956,-20.565 14.668,-20.977 18.168,-17.091C17.472,-16.344 16.866,-15.512 16.366,-14.613C11.576,-18.119 7.044,-17.059 4.137,-12.594C0.88,-7.588 -6.554,-4.153 -10.414,-16.954C-6.566,-12.479 -2.375,-8.426 3.462,-17.48C-0.852,-18.597 -1.686,-23.013 0,-28.82M-7.326,-7.97C-3.107,-4.607 0.288,-5.292 3.357,-9.583C6.373,-13.799 9.835,-15.117 15.765,-13.379C15.344,-12.377 15.048,-11.311 14.897,-10.198C8.876,-10.853 7.223,-7.899 5.273,-4.859C2.158,0 -5.691,-1.911 -7.326,-7.97" style="fill:rgb(4,21,87);"/>
            </g>
            <g transform="matrix(0.264813,0,0,0.264813,1249.42,1789.05)">
                <path d="M0,-18.278C3.368,-15.275 7.296,-12.539 11.113,-17.082C14.296,-20.871 15.926,-23.077 21.148,-22.795C21.183,-21.774 21.34,-20.757 21.621,-19.768C15.753,-18.87 13.291,-14.92 14.385,-9.705C15.611,-3.86 12.771,3.82 1,-2.522C6.884,-2.068 12.714,-2.156 10.457,-12.69C6.613,-10.435 2.905,-12.975 0,-18.278M9.529,1.661C14.891,1.065 16.813,-1.817 15.958,-7.023C15.117,-12.138 16.64,-15.514 22.067,-18.469C22.475,-17.463 23.018,-16.498 23.697,-15.603C18.969,-11.818 19.884,-8.558 20.65,-5.028C21.873,0.612 14.965,4.799 9.529,1.661" style="fill:rgb(4,21,87);"/>
            </g>
            <g transform="matrix(0.264813,0,0,0.264813,1252.95,1788.09)">
                <path d="M0,7.674C4.505,7.423 9.219,6.589 8.715,0.677C8.296,-4.254 7.893,-6.967 11.791,-10.454C12.536,-9.756 13.365,-9.146 14.263,-8.643C10.74,-3.865 11.785,0.67 16.241,3.592C21.235,6.866 24.645,14.311 11.831,18.128C16.319,14.296 20.386,10.118 11.352,4.25C10.22,8.561 5.802,9.379 0,7.674M20.825,15.07C24.203,10.863 23.529,7.465 19.248,4.382C15.042,1.352 13.737,-2.114 15.495,-8.038C16.495,-7.614 17.56,-7.314 18.673,-7.159C17.997,-1.141 20.945,0.522 23.979,2.482C28.828,5.614 26.89,13.456 20.825,15.07" style="fill:rgb(4,21,87);"/>
            </g>
            <g transform="matrix(0.264813,0,0,0.264813,1259.63,1785.55)">
                <path d="M0,23.688C3.014,20.33 5.764,16.412 1.234,12.58C-2.544,9.384 -4.745,7.746 -4.445,2.525C-3.425,2.494 -2.407,2.34 -1.416,2.063C-0.539,7.934 3.403,10.408 8.622,9.332C14.471,8.126 22.141,10.992 15.759,22.741C16.233,16.859 16.165,11.028 5.624,13.25C7.865,17.102 5.313,20.8 0,23.688M19.972,14.226C19.394,8.862 16.518,6.931 11.31,7.768C6.191,8.592 2.82,7.058 -0.116,1.621C0.891,1.216 1.858,0.676 2.755,0C6.525,4.741 9.787,3.837 13.32,3.084C18.964,1.879 23.128,8.802 19.972,14.226" style="fill:rgb(4,21,87);"/>
            </g>
            <g transform="matrix(0.264813,0,0,0.264813,1265.56,1780.67)">
                <path d="M0,28.834C-0.235,24.328 -1.054,19.612 -6.968,20.095C-11.9,20.498 -14.615,20.892 -18.088,16.982C-17.387,16.24 -16.775,15.412 -16.269,14.517C-11.503,18.055 -6.964,17.026 -4.027,12.58C-0.736,7.596 6.72,4.212 10.494,17.039C6.677,12.538 2.513,8.456 -3.385,17.471C0.921,18.617 1.725,23.038 0,28.834M7.467,8.034C3.271,4.643 -0.129,5.305 -3.227,9.575C-6.272,13.771 -9.742,15.064 -15.66,13.286C-15.232,12.288 -14.929,11.223 -14.77,10.111C-8.754,10.808 -7.081,7.865 -5.111,4.838C-1.962,0 5.873,1.964 7.467,8.034" style="fill:rgb(4,21,87);"/>
            </g>
            <g transform="matrix(0.264813,0,0,0.264813,1267.28,1776.74)">
                <path d="M0,18.487C-3.348,15.461 -7.257,12.699 -11.104,17.216C-14.313,20.983 -15.958,23.178 -21.178,22.861C-21.206,21.84 -21.357,20.822 -21.63,19.83C-15.756,18.972 -13.268,15.039 -14.327,9.817C-15.513,3.964 -12.621,-3.697 -0.893,2.725C-6.775,2.231 -12.605,2.28 -10.419,12.828C-6.56,10.6 -2.87,13.164 0,18.487M-9.394,-1.516C-14.76,-0.957 -16.701,1.913 -15.881,7.124C-15.076,12.245 -16.621,15.611 -22.068,18.529C-22.469,17.52 -23.006,16.552 -23.678,15.652C-18.925,11.898 -19.818,8.633 -20.559,5.098C-21.744,-0.551 -14.808,-4.691 -9.394,-1.516" style="fill:rgb(4,21,87);"/>
            </g>
            <g transform="matrix(0.264813,0,0,0.264813,1258.34,1785.67)">
                <circle cx="0" cy="-10.514" r="10.514" style="fill:rgb(4,21,87);"/>
            </g>
        </g>
    </g>
</svg>
