<?xml version="1.0" encoding="UTF-8" standalone="no"?>
<!DOCTYPE svg PUBLIC "-//W3C//DTD SVG 1.1//EN" "http://www.w3.org/Graphics/SVG/1.1/DTD/svg11.dtd">
<svg width="100%" height="100%" viewBox="0 0 2000 815" version="1.1" xmlns="http://www.w3.org/2000/svg" xmlns:xlink="http://www.w3.org/1999/xlink" xml:space="preserve" xmlns:serif="http://www.serif.com/" style="fill-rule:evenodd;clip-rule:evenodd;stroke-linejoin:round;stroke-miterlimit:1.41421;">
    <g transform="matrix(7.40741,0,0,7.40741,-4319.91,-505.272)">
        <g transform="matrix(1,0,0,1,445.397,-9.48)">
            <g transform="matrix(1,0,0,1,138.601,186.085)">
                <path d="M12.936,-0.045C13.062,0.207 13.314,0.417 13.65,0.417L14.07,0.417C14.406,0.417 14.658,0.207 14.784,-0.045L27.972,-28.305C28.224,-28.851 27.888,-29.397 27.258,-29.397L21.672,-29.397C21.336,-29.397 21.042,-29.145 20.958,-28.935L14.028,-13.608L13.776,-13.608L6.846,-28.935C6.762,-29.145 6.468,-29.397 6.132,-29.397L0.546,-29.397C-0.084,-29.397 -0.42,-28.851 -0.168,-28.305L12.936,-0.045Z" style="fill:rgb(4,21,87);fill-rule:nonzero;"/>
            </g>
            <g transform="matrix(1,0,0,1,165.775,186.085)">
                <path d="M5.334,-21.885C7.181,-21.885 8.691,-23.353 8.691,-25.2C8.691,-27.047 7.181,-28.557 5.334,-28.557C3.488,-28.557 2.019,-27.047 2.019,-25.2C2.019,-23.353 3.488,-21.885 5.334,-21.885ZM2.271,-0.8C2.271,-0.381 2.648,-0.003 3.068,-0.003L7.684,-0.003C8.104,-0.003 8.481,-0.381 8.481,-0.8L8.481,-16C8.481,-16.462 8.104,-16.797 7.684,-16.797L3.068,-16.797C2.648,-16.797 2.271,-16.462 2.271,-16L2.271,-0.8Z" style="fill:rgb(4,21,87);fill-rule:nonzero;"/>
                <path d="M13.023,-0.8C13.023,-0.381 13.4,-0.003 13.82,-0.003L18.478,-0.003C18.898,-0.003 19.275,-0.381 19.275,-0.8L19.275,-7.644L24.987,-0.339C25.113,-0.171 25.449,-0.003 25.617,-0.003L31.287,-0.003C32.001,-0.003 32.379,-0.716 31.917,-1.262L25.197,-9.072L30.741,-15.496C31.203,-16.084 30.825,-16.797 30.111,-16.797L25.407,-16.797C24.903,-16.797 24.609,-16.546 24.357,-16.294L19.275,-10.415L19.275,-28.599C19.275,-29.019 18.898,-29.397 18.478,-29.397L13.82,-29.397C13.4,-29.397 13.023,-29.019 13.023,-28.599L13.023,-0.8Z" style="fill:rgb(4,21,87);fill-rule:nonzero;"/>
                <path d="M33.183,-5.123C33.183,-1.806 35.658,0.417 38.974,0.417C41.623,0.417 43.094,-0.799 44.059,-1.68L44.647,-0.547C44.856,-0.087 45.15,-0.003 45.402,-0.003L47.248,-0.003C47.668,-0.003 48.045,-0.381 48.045,-0.801L48.045,-10.078C48.045,-15.036 46.157,-17.217 40.95,-17.217C38.679,-17.217 35.742,-16.714 35.365,-16.588C34.987,-16.462 34.609,-16.169 34.735,-15.455L35.113,-12.812C35.197,-12.182 35.49,-11.718 36.12,-11.929C37.211,-12.266 39.184,-12.561 40.32,-12.561C42.338,-12.561 42.591,-11.718 42.591,-10.078C42.591,-10.078 41.245,-10.749 39.352,-10.749C35.532,-10.749 33.183,-8.359 33.183,-5.127L33.183,-5.123ZM38.637,-5.547C38.637,-6.513 39.436,-7.311 40.446,-7.311C41.455,-7.311 42.254,-6.513 42.296,-5.547C42.296,-4.535 41.455,-3.693 40.446,-3.693C39.436,-3.693 38.637,-4.535 38.637,-5.544L38.637,-5.547Z" style="fill:rgb(4,21,87);fill-rule:nonzero;"/>
                <path d="M51.744,-0.967C52.584,-0.296 54.684,0.417 57.456,0.417C62.202,0.417 64.554,-1.974 64.554,-4.912C64.554,-8.274 62.202,-9.619 58.8,-10.795C57.372,-11.3 56.91,-11.72 56.91,-12.14C56.91,-12.602 57.288,-12.729 57.834,-12.729C59.472,-12.729 61.404,-11.762 61.404,-11.762C61.74,-11.636 62.16,-11.762 62.286,-12.014L63.84,-14.868C64.092,-15.288 63.798,-15.665 63.42,-15.917C62.496,-16.504 60.48,-17.217 57.834,-17.217C53.298,-17.217 51.282,-14.952 51.282,-12.14C51.282,-9.535 52.71,-7.644 55.986,-6.509C58.128,-5.752 58.38,-5.164 58.38,-4.744C58.38,-4.24 58.002,-3.987 57.582,-3.987C55.776,-3.987 53.802,-5.08 53.802,-5.08C53.466,-5.248 53.046,-4.996 52.92,-4.744L51.45,-1.848C51.24,-1.47 51.45,-1.219 51.744,-0.967Z" style="fill:rgb(4,21,87);fill-rule:nonzero;"/>
                <path d="M78.543,-0.8C78.543,-0.381 78.92,-0.003 79.34,-0.003L84.376,-0.003C84.796,-0.003 85.173,-0.381 85.173,-0.8L85.173,-28.599C85.173,-29.019 84.796,-29.397 84.376,-29.397L79.34,-29.397C78.92,-29.397 78.543,-29.019 78.543,-28.599L78.543,-0.8Z" style="fill:rgb(4,21,87);fill-rule:nonzero;"/>
            </g>
            <g transform="matrix(1,0,0,1,254.017,186.085)">
                <path d="M2.271,-0.801C2.271,-0.381 2.648,-0.003 3.068,-0.003L7.474,-0.003C8.061,-0.003 8.229,-0.423 8.229,-0.801L8.229,-8.865C8.229,-10.587 9.743,-11.805 11.424,-11.805C13.316,-11.805 14.283,-10.335 14.283,-8.655L14.283,-0.801C14.283,-0.381 14.618,-0.003 15.08,-0.003L19.57,-0.003C19.99,-0.003 20.367,-0.381 20.367,-0.801L20.367,-8.445C20.367,-13.231 17.598,-17.217 12.391,-17.217C9.322,-17.217 7.39,-15.623 6.467,-14.616L5.796,-16.294C5.67,-16.588 5.292,-16.797 5.04,-16.797L3.068,-16.797C2.648,-16.797 2.271,-16.462 2.271,-16L2.271,-0.801Z" style="fill:rgb(4,21,87);fill-rule:nonzero;"/>
                <path d="M23.229,-8.4C23.229,-3.569 26.795,0.417 31.542,0.417C35.24,0.417 37.171,-2.226 37.171,-2.226L37.674,-0.841C37.842,-0.381 38.136,-0.003 38.556,-0.003L40.528,-0.003C40.948,-0.003 41.325,-0.381 41.325,-0.801L41.325,-28.599C41.325,-29.019 40.948,-29.397 40.528,-29.397L35.87,-29.397C35.45,-29.397 35.073,-29.019 35.073,-28.599L35.073,-16.42C34.568,-16.714 33.013,-17.217 31.584,-17.217C27.089,-17.217 23.229,-14.322 23.229,-8.403L23.229,-8.4ZM28.977,-8.445C28.977,-10.335 30.449,-11.805 32.382,-11.805C34.316,-11.805 35.745,-10.334 35.745,-8.442C35.745,-6.509 34.316,-4.995 32.382,-4.995C30.449,-4.995 28.977,-6.509 28.977,-8.442L28.977,-8.445Z" style="fill:rgb(4,21,87);fill-rule:nonzero;"/>
                <path d="M45.489,-8.397C45.489,-3.611 47.881,0.417 52.877,0.417C56.114,0.417 57.458,-1.093 58.549,-2.142L59.179,-0.59C59.304,-0.297 59.598,-0.003 59.976,-0.003L61.948,-0.003C62.368,-0.003 62.745,-0.381 62.745,-0.8L62.745,-16C62.745,-16.462 62.368,-16.797 61.948,-16.797L57.668,-16.797C57.248,-16.797 56.787,-16.672 56.787,-16L56.787,-7.98C56.787,-6.549 55.904,-4.995 54.264,-4.995C52.54,-4.995 51.573,-6.507 51.573,-8.229L51.573,-15.999C51.573,-16.461 51.196,-16.797 50.776,-16.797L46.286,-16.797C45.866,-16.797 45.489,-16.461 45.489,-15.999L45.489,-8.397Z" style="fill:rgb(4,21,87);fill-rule:nonzero;"/>
                <path d="M66.696,-0.967C67.536,-0.296 69.636,0.417 72.408,0.417C77.154,0.417 79.506,-1.974 79.506,-4.912C79.506,-8.274 77.154,-9.619 73.752,-10.795C72.324,-11.3 71.862,-11.72 71.862,-12.14C71.862,-12.602 72.24,-12.729 72.786,-12.729C74.424,-12.729 76.356,-11.762 76.356,-11.762C76.692,-11.636 77.112,-11.762 77.238,-12.014L78.792,-14.868C79.044,-15.288 78.75,-15.665 78.372,-15.917C77.448,-16.504 75.432,-17.217 72.786,-17.217C68.25,-17.217 66.234,-14.952 66.234,-12.14C66.234,-9.535 67.662,-7.644 70.938,-6.509C73.08,-5.752 73.332,-5.164 73.332,-4.744C73.332,-4.24 72.954,-3.987 72.534,-3.987C70.728,-3.987 68.754,-5.08 68.754,-5.08C68.418,-5.248 67.998,-4.996 67.872,-4.744L66.402,-1.848C66.192,-1.47 66.402,-1.219 66.696,-0.967Z" style="fill:rgb(4,21,87);fill-rule:nonzero;"/>
                <path d="M83.541,-5.416C83.541,-1.597 85.387,0.417 88.576,0.417C90.675,0.417 93.657,-0.506 93.657,-0.506C94.077,-0.632 94.287,-1.093 94.203,-1.471L93.279,-4.954C93.153,-5.416 92.775,-5.584 92.355,-5.5C91.935,-5.416 91.305,-5.205 90.717,-5.205C90.213,-5.205 89.583,-5.289 89.583,-6.214L89.583,-11.469L92.691,-11.469C93.153,-11.469 93.489,-11.846 93.489,-12.266L93.489,-16C93.489,-16.462 93.153,-16.797 92.691,-16.797L89.583,-16.797L89.583,-21.459C89.583,-21.879 89.248,-22.257 88.828,-22.257L84.338,-22.257C83.918,-22.257 83.541,-21.879 83.541,-21.459L83.541,-16.797L82.449,-16.797C82.029,-16.797 81.693,-16.462 81.693,-16L81.693,-12.266C81.693,-11.846 82.029,-11.469 82.449,-11.469L83.541,-11.469L83.541,-5.416Z" style="fill:rgb(4,21,87);fill-rule:nonzero;"/>
                <path d="M97.317,-0.801C97.317,-0.381 97.694,-0.003 98.114,-0.003L102.394,-0.003C103.066,-0.003 103.317,-0.297 103.317,-0.801L103.317,-9.495C103.317,-10.923 104.283,-11.889 105.543,-11.889C105.921,-11.889 106.341,-11.763 106.551,-11.679C107.013,-11.511 107.307,-11.763 107.475,-12.056L109.533,-15.413C110.121,-16.378 108.483,-17.217 106.173,-17.217C103.989,-17.217 102.436,-15.665 101.597,-14.448L100.842,-16.294C100.716,-16.546 100.548,-16.797 100.086,-16.797L98.114,-16.797C97.694,-16.797 97.317,-16.462 97.317,-16L97.317,-0.801Z" style="fill:rgb(4,21,87);fill-rule:nonzero;"/>
                <path d="M114.87,-21.885C116.717,-21.885 118.227,-23.353 118.227,-25.2C118.227,-27.047 116.717,-28.557 114.87,-28.557C113.024,-28.557 111.555,-27.047 111.555,-25.2C111.555,-23.353 113.024,-21.885 114.87,-21.885ZM111.807,-0.8C111.807,-0.381 112.184,-0.003 112.604,-0.003L117.22,-0.003C117.64,-0.003 118.017,-0.381 118.017,-0.8L118.017,-16C118.017,-16.462 117.64,-16.797 117.22,-16.797L112.604,-16.797C112.184,-16.797 111.807,-16.462 111.807,-16L111.807,-0.8Z" style="fill:rgb(4,21,87);fill-rule:nonzero;"/>
                <path d="M121.299,-8.401C121.299,-3.569 125.079,0.417 130.077,0.417C132.722,0.417 134.82,-0.506 136.289,-1.974C136.667,-2.352 136.583,-2.855 136.331,-3.191L134.233,-5.711C133.981,-6.006 133.561,-6.006 133.184,-5.711C132.512,-5.206 131.295,-4.701 130.245,-4.701C128.061,-4.701 127.137,-6.342 127.011,-7.479L137.086,-7.479C137.464,-7.479 137.841,-7.772 137.883,-8.191C137.925,-8.485 137.967,-9.03 137.967,-9.324C137.967,-13.945 134.275,-17.217 129.993,-17.217C125.037,-17.217 121.299,-13.148 121.299,-8.401ZM127.557,-10.749C127.725,-11.844 128.691,-12.729 129.825,-12.729C130.917,-12.729 131.967,-11.844 132.051,-10.749L127.557,-10.749Z" style="fill:rgb(4,21,87);fill-rule:nonzero;"/>
                <path d="M140.406,-0.967C141.246,-0.296 143.346,0.417 146.118,0.417C150.864,0.417 153.216,-1.974 153.216,-4.912C153.216,-8.274 150.864,-9.619 147.462,-10.795C146.034,-11.3 145.572,-11.72 145.572,-12.14C145.572,-12.602 145.95,-12.729 146.496,-12.729C148.134,-12.729 150.066,-11.762 150.066,-11.762C150.402,-11.636 150.822,-11.762 150.948,-12.014L152.502,-14.868C152.754,-15.288 152.46,-15.665 152.082,-15.917C151.158,-16.504 149.142,-17.217 146.496,-17.217C141.96,-17.217 139.944,-14.952 139.944,-12.14C139.944,-9.535 141.372,-7.644 144.648,-6.509C146.79,-5.752 147.042,-5.164 147.042,-4.744C147.042,-4.24 146.664,-3.987 146.244,-3.987C144.438,-3.987 142.464,-5.08 142.464,-5.08C142.128,-5.248 141.708,-4.996 141.582,-4.744L140.112,-1.848C139.902,-1.47 140.112,-1.219 140.406,-0.967Z" style="fill:rgb(4,21,87);fill-rule:nonzero;"/>
            </g>
        </g>
        <g transform="matrix(0.756376,0,0,0.754723,291.403,-43.089)">
            <path d="M591.856,169.477L607.957,169.477L563.736,246.262L555.755,232.497L591.856,169.477Z" style="fill:rgb(4,21,87);"/>
        </g>
        <path d="M729.032,69.512L741.163,69.537L734.293,81.675L708.329,126.103L675.147,69.401L729.032,69.512ZM729.032,69.512L721.252,69.496L714.912,79.593L692.952,79.419L708.263,105.696L729.032,69.512ZM747.57,69.55L759.949,69.575L754.153,79.506L742.009,79.506L747.57,69.55Z" style="fill:rgb(184,27,27);"/>
    </g>
</svg>
